# xmcd
#
# Track frame offsets: 
#        150
#        17388
#        32681
#        52126
#        72649
#        84637
#        94984
#        108785
#        122589
#        135357
#        149123
#        162000
#        172301
#        181825
#        197398
#        208184
#        223974
#        248176
#        266443
#        282355
#
# Disc length: 4117 seconds
#
# Revision: 2
# Processed by: cddbd v1.5.2PL0 Copyright (c) Steve Scherf et al.
# Submitted via: ExactAudioCopyFreeDBPlugin 1.0
#
DISCID=2f101314
DTITLE=De Nieuwe Snaar - Alle 40 Goed  [CD2-2]
DYEAR=2010
DGENRE=Pop-Folk
TTITLE0=De duivelse dans  (2002)
TTITLE1=Het mooiste orkest van de wereld  (2003)
TTITLE2=In de hemel is geen Dylan  (2003)
TTITLE3=De laatste bolero  (2003)
TTITLE4=Georges  (2003)
TTITLE5=Denkend aan Buddy Holly's bril  (2003)
TTITLE6=En ondertussen  (2003)
TTITLE7=Wie zou je willen wezen  (2006)
TTITLE8=Plaats in de annalen  (2006)
TTITLE9=Als mijn vader...  (2006)
TTITLE10=Blinkend van trots  (2006)
TTITLE11=Het heelal  (2006)
TTITLE12=Van de grond  (2006)
TTITLE13=Klaar voor het feest  (2009)
TTITLE14=De nieuwe anonimiteit  (2009)
TTITLE15=De 'King'  (2009)
TTITLE16=Graven  (2009)
TTITLE17=Geen vrouwen in de groep  (2009)
TTITLE18=De hellevaart in de poliep  (2009)
TTITLE19=Bijna nabij  (2009)
EXTD=
EXTT0=
EXTT1=
EXTT2=
EXTT3=
EXTT4=
EXTT5=
EXTT6=
EXTT7=
EXTT8=
EXTT9=
EXTT10=
EXTT11=
EXTT12=
EXTT13=
EXTT14=
EXTT15=
EXTT16=
EXTT17=
EXTT18=
EXTT19=
PLAYORDER=
